{"title":"Stossel.2014.WS.SDTV-MiXED","uid":11999991,"size":16838931338,"categoryP":"video","categoryS":"tv_shows","magnet":"?xt=urn:btih:f00ac3d43ff44385942bde8ac1899ca26212ef7c&amp;dn=Stossel.2014.WS.SDTV-MiXED&amp;tr=udp%3A%2F%2Ftracker.openbittorrent.com%3A80&amp;tr=udp%3A%2F%2Fopen.demonii.com%3A1337&amp;tr=udp%3A%2F%2Ftracker.coppersurfer.tk%3A6969&amp;tr=udp%3A%2F%2Fexodus.desync.com%3A6969","seeders":0,"leechers":0,"uploader":"Reive","files":47,"time":1433756883,"description":"John F. Stossel is an American consumer reporter, investigative journalist, author, libertarian columnist, and former co-anchor for the ABC News show 20/20. In this show he looks at consumer-focused topics, such as civil liberties, the business of health care, and free trade.\n\nTHESE ARE NOT SCENE RIPS. All rips without &quot;XAiO&quot; in the filename were ripped by skJGZV6z over at TPB. Thanks go out to him. I've got the rest of Stossel, including new episodes. As well as The Independents. I've also been ripping Kennedy. Not sure when I'll post what. Let's see what the interest in this torrent is like first.\n\nThese two mediainfo outputs outline the files for the most part:\nGeneral \nComplete name : Stossel.2014.01.09.[Equality vs. Liberty].Fox Business.CF.avi \nFormat : AVI Format/Info : Audio Video Interleave \nFormat/Info : Audio Video Interleave File size : 363 MiB \nFile size : 363 MiB Duration : 40mn 47s \nDuration : 40mn 47s Overall bit rate : 1 245 Kbps \nOverall bit rate : 1 245 Kbps \nVideo \nID : 0 \nID : 0 Format : MPEG-4 Visual \nFormat : MPEG-4 Visual Format profile : Advanced Simple@L5 \nFormat profile : Advanced Simple@L5 Format settings, BVOP : 2 \nFormat settings, BVOP : 2 Format settings, QPel : Yes \nFormat settings, QPel : Yes Format settings, GMC : No warppoints \nFormat settings, GMC : No warppoints Format settings, Matrix : Custom \nFormat settings, Matrix : Custom Codec ID : XVID \nCodec ID : XVID Codec ID/Hint : XviD \nCodec ID/Hint : XviD Duration : 40mn 47s \nDuration : 40mn 47s Bit rate : 1 098 Kbps \nBit rate : 1 098 Kbps Width : 624 pixels \nWidth : 624 pixels Height : 364 pixels \nHeight : 364 pixels Display aspect ratio : 1.714 \nDisplay aspect ratio : 1.714 Frame rate : 29.970 fps \nFrame rate : 29.970 fps Color space : YUV \nColor space : YUV Chroma subsampling : 4:2:0 \nChroma subsampling : 4:2:0 Bit depth : 8 bits \nBit depth : 8 bits Scan type : Progressive \nScan type : Progressive Compression mode : Lossy \nCompression mode : Lossy Bits/(Pixel*Frame) : 0.161 \nBits/(Pixel*Frame) : 0.161 Stream size : 320 MiB (88%) \nStream size : 320 MiB (88%) Writing library : XviD 1.2.1 (UTC 2008-12-04) \nWriting library : XviD 1.2.1 (UTC 2008-12-04) \nAudio \nID : 1 \nID : 1 Format : MPEG Audio \nFormat : MPEG Audio Format version : Version 1 \nFormat version : Version 1 Format profile : Layer 3 \nFormat profile : Layer 3 Mode : Joint stereo \nMode : Joint stereo Mode extension : MS Stereo \nMode extension : MS Stereo Codec ID : 55 \nCodec ID : 55 Codec ID/Hint : MP3 \nCodec ID/Hint : MP3 Duration : 29mn 20s \nDuration : 29mn 20s Source duration : 40mn 46s \nSource duration : 40mn 46s Bit rate mode : Constant \nBit rate mode : Constant Bit rate : 128 Kbps \nBit rate : 128 Kbps Channel(s) : 2 channels \nChannel(s) : 2 channels Sampling rate : 48.0 KHz \nSampling rate : 48.0 KHz Compression mode : Lossy \nCompression mode : Lossy Stream size : 37.3 MiB (10%) \nStream size : 37.3 MiB (10%) Alignment : Split accross interleaves \nAlignment : Split accross interleaves Interleave, duration : 24 ms (0.72 video frame) \nInterleave, duration : 24 ms (0.72 video frame) Writing library : LAME3.98.4 \nWriting library : LAME3.98.4 \n\n---------------------------------------------------------------------------------------------\n\nGeneral \nComplete name : Stossel.2014.12.25.Best.of.2014.WS.SDTV.x264-XAiO.mp4 \nFormat : MPEG-4 \nFormat : MPEG-4 Format profile : Base Media \nFormat profile : Base Media Codec ID : isom \nCodec ID : isom File size : 351 MiB \nFile size : 351 MiB Duration : 41mn 6s \nDuration : 41mn 6s Overall bit rate : 1 193 Kbps \nOverall bit rate : 1 193 Kbps Writing application : Lavf54.63.104 \nWriting application : Lavf54.63.104 \nVideo \nID : 1 \nID : 1 Format : AVC \nFormat : AVC Format/Info : Advanced Video Codec \nFormat/Info : Advanced Video Codec Format profile : &lt;a class=&quot;__cf_email__&quot; href=&quot;/cdn-cgi/l/email-protection&quot; data-cfemail=&quot;b3fbdad4dbf3ff809d83&quot;&gt;[email&amp;#160;protected]&lt;/a&gt;&lt;script data-cfhash='f9e31' type=&quot;text/javascript&quot;&gt;\n/* &lt;![CDATA[ */!function(){try{var t=&quot;currentScript&quot;in document?document.currentScript:function(){for(var t=document.getElementsByTagName(&quot;script&quot;),e=t.length;e--;)if(t[e].getAttribute(&quot;data-cfhash&quot;))return t[e]}();if(t&amp;&amp;t.previousSibling){var e,r,n,i,c=t.previousSibling,a=c.getAttribute(&quot;data-cfemail&quot;);if(a){for(e=&quot;&quot;,r=parseInt(a.substr(0,2),16),n=2;a.length-n;n+=2)i=parseInt(a.substr(n,2),16)^r,e+=String.fromCharCode(i);e=document.createTextNode(e),c.parentNode.replaceChild(e,c)}t.parentNode.removeChild(t);}}catch(u){}}()/* ]]&gt; */&lt;/script&gt; \nFormat profile : &lt;a class=&quot;__cf_email__&quot; href=&quot;/cdn-cgi/l/email-protection&quot; data-cfemail=&quot;9ad2f3fdf2dad6a9b4aa&quot;&gt;[email&amp;#160;protected]&lt;/a&gt;&lt;script data-cfhash='f9e31' type=&quot;text/javascript&quot;&gt;\n/* &lt;![CDATA[ */!function(){try{var t=&quot;currentScript&quot;in document?document.currentScript:function(){for(var t=document.getElementsByTagName(&quot;script&quot;),e=t.length;e--;)if(t[e].getAttribute(&quot;data-cfhash&quot;))return t[e]}();if(t&amp;&amp;t.previousSibling){var e,r,n,i,c=t.previousSibling,a=c.getAttribute(&quot;data-cfemail&quot;);if(a){for(e=&quot;&quot;,r=parseInt(a.substr(0,2),16),n=2;a.length-n;n+=2)i=parseInt(a.substr(n,2),16)^r,e+=String.fromCharCode(i);e=document.createTextNode(e),c.parentNode.replaceChild(e,c)}t.parentNode.removeChild(t);}}catch(u){}}()/* ]]&gt; */&lt;/script&gt; Format settings, CABAC : Yes \nFormat settings, CABAC : Yes Format settings, ReFrames : 4 frames \nFormat settings, ReFrames : 4 frames Codec ID : avc1 \nCodec ID : avc1 Codec ID/Info : Advanced Video Coding \nCodec ID/Info : Advanced Video Coding Duration : 41mn 6s \nDuration : 41mn 6s Bit rate : 1 054 Kbps \nBit rate : 1 054 Kbps Width : 720 pixels \nWidth : 720 pixels Height : 404 pixels \nHeight : 404 pixels Display aspect ratio : 16:9 \nDisplay aspect ratio : 16:9 Frame rate mode : Variable \nFrame rate mode : Variable Frame rate : 29.970 fps \nFrame rate : 29.970 fps Minimum frame rate : 9.990 fps \nMinimum frame rate : 9.990 fps Maximum frame rate : 29.970 fps \nMaximum frame rate : 29.970 fps Color space : YUV \nColor space : YUV Chroma subsampling : 4:2:0 \nChroma subsampling : 4:2:0 Bit depth : 8 bits \nBit depth : 8 bits Scan type : Progressive \nScan type : Progressive Bits/(Pixel*Frame) : 0.121 \nBits/(Pixel*Frame) : 0.121 Stream size : 310 MiB (88%) \nStream size : 310 MiB (88%) Writing library : x264 core 123 r2189 35cf912 \nWriting library : x264 core 123 r2189 35cf912 Encoding settings : cabac=1 / ref=3 / deblock=1:0:0 / analyse=0x3:0x133 / me=hex / subme=7 / psy=1 / psy_rd=1.00:0.00 / mixed_ref=1 / me_range=16 / chroma_me=1 / trellis=1 / 8x8dct=1 / cqm=0 / deadzone=21,11 / fast_pskip=1 / chroma_qp_offset=-2 / threads=6 / sliced_threads=0 / nr=0 / decimate=1 / interlaced=0 / bluray_compat=0 / constrained_intra=0 / bframes=3 / b_pyramid=2 / b_adapt=1 / b_bias=0 / direct=1 / weightb=1 / open_gop=0 / weightp=2 / keyint=250 / keyint_min=25 / scenecut=40 / intra_refresh=0 / rc_lookahead=40 / rc=2pass / mbtree=1 / bitrate=1054 / ratetol=1.0 / qcomp=0.60 / qpmin=10 / qpmax=51 / qpstep=4 / cplxblur=20.0 / qblur=0.5 / ip_ratio=1.40 / aq=1:1.00 \nEncoding settings : cabac=1 / ref=3 / deblock=1:0:0 / analyse=0x3:0x133 / me=hex / subme=7 / psy=1 / psy_rd=1.00:0.00 / mixed_ref=1 / me_range=16 / chroma_me=1 / trellis=1 / 8x8dct=1 / cqm=0 / deadzone=21,11 / fast_pskip=1 / chroma_qp_offset=-2 / threads=6 / sliced_threads=0 / nr=0 / decimate=1 / interlaced=0 / bluray_compat=0 / constrained_intra=0 / bframes=3 / b_pyramid=2 / b_adapt=1 / b_bias=0 / direct=1 / weightb=1 / open_gop=0 / weightp=2 / keyint=250 / keyint_min=25 / scenecut=40 / intra_refresh=0 / rc_lookahead=40 / rc=2pass / mbtree=1 / bitrate=1054 / ratetol=1.0 / qcomp=0.60 / qpmin=10 / qpmax=51 / qpstep=4 / cplxblur=20.0 / qblur=0.5 / ip_ratio=1.40 / aq=1:1.00 \nAudio \nID : 2 \nID : 2 Format : AAC \nFormat : AAC Format/Info : Advanced Audio Codec \nFormat/Info : Advanced Audio Codec Format profile : LC \nFormat profile : LC Codec ID : 40 \nCodec ID : 40 Duration : 41mn 6s \nDuration : 41mn 6s Bit rate mode : Constant \nBit rate mode : Constant Bit rate : 128 Kbps \nBit rate : 128 Kbps Channel(s) : 2 channels \nChannel(s) : 2 channels Channel positions : Front: L R \nChannel positions : Front: L R Sampling rate : 48.0 KHz \nSampling rate : 48.0 KHz Compression mode : Lossy \nCompression mode : Lossy Stream size : 37.6 MiB (11%) \nStream size : 37.6 MiB (11%) Language : unk \nLanguage : unk","torrent":{"xt":"urn:btih:f00ac3d43ff44385942bde8ac1899ca26212ef7c","amp;dn":"Stossel.2014.WS.SDTV-MiXED","amp;tr":["udp%3A%2F%2Ftracker.openbittorrent.com%3A80","udp%3A%2F%2Fopen.demonii.com%3A1337","udp%3A%2F%2Ftracker.coppersurfer.tk%3A6969","udp%3A%2F%2Fexodus.desync.com%3A6969"],"infoHash":"f00ac3d43ff44385942bde8ac1899ca26212ef7c","infoHashBuffer":{"type":"Buffer","data":[240,10,195,212,63,244,67,133,148,43,222,138,193,137,156,162,98,18,239,124]},"announce":[],"urlList":[]}}